<?xml version="1.0" encoding="utf-8" standalone="no"?>
<!DOCTYPE svg PUBLIC "-//W3C//DTD SVG 1.1//EN"
  "http://www.w3.org/Graphics/SVG/1.1/DTD/svg11.dtd">
<svg xmlns:xlink="http://www.w3.org/1999/xlink" width="460.8pt" height="345.6pt" viewBox="0 0 460.8 345.6" xmlns="http://www.w3.org/2000/svg" version="1.1">
 <metadata>
  <rdf:RDF xmlns:dc="http://purl.org/dc/elements/1.1/" xmlns:cc="http://creativecommons.org/ns#" xmlns:rdf="http://www.w3.org/1999/02/22-rdf-syntax-ns#">
   <cc:Work>
    <dc:type rdf:resource="http://purl.org/dc/dcmitype/StillImage"/>
    <dc:date>2023-04-24T11:04:22.710139</dc:date>
    <dc:format>image/svg+xml</dc:format>
    <dc:creator>
     <cc:Agent>
      <dc:title>Matplotlib v3.5.1, https://matplotlib.org/</dc:title>
     </cc:Agent>
    </dc:creator>
   </cc:Work>
  </rdf:RDF>
 </metadata>
 <defs>
  <style type="text/css">*{stroke-linejoin: round; stroke-linecap: butt}</style>
 </defs>
 <g id="figure_1">
  <g id="patch_1">
   <path d="M 0 345.6 
L 460.8 345.6 
L 460.8 0 
L 0 0 
z
" style="fill: #ffffff"/>
  </g>
  <g id="axes_1">
   <g id="patch_2">
    <path d="M 46.15 317.72 
L 450 317.72 
L 450 10.8 
L 46.15 10.8 
z
" style="fill: #ffffff"/>
   </g>
   <g id="matplotlib.axis_1">
    <g id="xtick_1">
     <g id="line2d_1">
      <path d="M 64.506818 317.72 
L 64.506818 10.8 
" clip-path="url(#pbf2ab566e1)" style="fill: none; stroke: #b0b0b0; stroke-width: 0.8; stroke-linecap: square"/>
     </g>
     <g id="line2d_2">
      <defs>
       <path id="m8537c3c953" d="M 0 0 
L 0 3.5 
" style="stroke: #000000; stroke-width: 0.8"/>
      </defs>
      <g>
       <use xlink:href="#m8537c3c953" x="64.506818" y="317.72" style="stroke: #000000; stroke-width: 0.8"/>
      </g>
     </g>
     <g id="text_1">
      <!-- 0 -->
      <g transform="translate(61.325568 332.318437)scale(0.1 -0.1)">
       <defs>
        <path id="DejaVuSans-30" d="M 2034 4250 
Q 1547 4250 1301 3770 
Q 1056 3291 1056 2328 
Q 1056 1369 1301 889 
Q 1547 409 2034 409 
Q 2525 409 2770 889 
Q 3016 1369 3016 2328 
Q 3016 3291 2770 3770 
Q 2525 4250 2034 4250 
z
M 2034 4750 
Q 2819 4750 3233 4129 
Q 3647 3509 3647 2328 
Q 3647 1150 3233 529 
Q 2819 -91 2034 -91 
Q 1250 -91 836 529 
Q 422 1150 422 2328 
Q 422 3509 836 4129 
Q 1250 4750 2034 4750 
z
" transform="scale(0.015625)"/>
       </defs>
       <use xlink:href="#DejaVuSans-30"/>
      </g>
     </g>
    </g>
    <g id="xtick_2">
     <g id="line2d_3">
      <path d="M 138.007592 317.72 
L 138.007592 10.8 
" clip-path="url(#pbf2ab566e1)" style="fill: none; stroke: #b0b0b0; stroke-width: 0.8; stroke-linecap: square"/>
     </g>
     <g id="line2d_4">
      <g>
       <use xlink:href="#m8537c3c953" x="138.007592" y="317.72" style="stroke: #000000; stroke-width: 0.8"/>
      </g>
     </g>
     <g id="text_2">
      <!-- 200 -->
      <g transform="translate(128.463842 332.318437)scale(0.1 -0.1)">
       <defs>
        <path id="DejaVuSans-32" d="M 1228 531 
L 3431 531 
L 3431 0 
L 469 0 
L 469 531 
Q 828 903 1448 1529 
Q 2069 2156 2228 2338 
Q 2531 2678 2651 2914 
Q 2772 3150 2772 3378 
Q 2772 3750 2511 3984 
Q 2250 4219 1831 4219 
Q 1534 4219 1204 4116 
Q 875 4013 500 3803 
L 500 4441 
Q 881 4594 1212 4672 
Q 1544 4750 1819 4750 
Q 2544 4750 2975 4387 
Q 3406 4025 3406 3419 
Q 3406 3131 3298 2873 
Q 3191 2616 2906 2266 
Q 2828 2175 2409 1742 
Q 1991 1309 1228 531 
z
" transform="scale(0.015625)"/>
       </defs>
       <use xlink:href="#DejaVuSans-32"/>
       <use xlink:href="#DejaVuSans-30" x="63.623047"/>
       <use xlink:href="#DejaVuSans-30" x="127.246094"/>
      </g>
     </g>
    </g>
    <g id="xtick_3">
     <g id="line2d_5">
      <path d="M 211.508365 317.72 
L 211.508365 10.8 
" clip-path="url(#pbf2ab566e1)" style="fill: none; stroke: #b0b0b0; stroke-width: 0.8; stroke-linecap: square"/>
     </g>
     <g id="line2d_6">
      <g>
       <use xlink:href="#m8537c3c953" x="211.508365" y="317.72" style="stroke: #000000; stroke-width: 0.8"/>
      </g>
     </g>
     <g id="text_3">
      <!-- 400 -->
      <g transform="translate(201.964615 332.318437)scale(0.1 -0.1)">
       <defs>
        <path id="DejaVuSans-34" d="M 2419 4116 
L 825 1625 
L 2419 1625 
L 2419 4116 
z
M 2253 4666 
L 3047 4666 
L 3047 1625 
L 3713 1625 
L 3713 1100 
L 3047 1100 
L 3047 0 
L 2419 0 
L 2419 1100 
L 313 1100 
L 313 1709 
L 2253 4666 
z
" transform="scale(0.015625)"/>
       </defs>
       <use xlink:href="#DejaVuSans-34"/>
       <use xlink:href="#DejaVuSans-30" x="63.623047"/>
       <use xlink:href="#DejaVuSans-30" x="127.246094"/>
      </g>
     </g>
    </g>
    <g id="xtick_4">
     <g id="line2d_7">
      <path d="M 285.009139 317.72 
L 285.009139 10.8 
" clip-path="url(#pbf2ab566e1)" style="fill: none; stroke: #b0b0b0; stroke-width: 0.8; stroke-linecap: square"/>
     </g>
     <g id="line2d_8">
      <g>
       <use xlink:href="#m8537c3c953" x="285.009139" y="317.72" style="stroke: #000000; stroke-width: 0.8"/>
      </g>
     </g>
     <g id="text_4">
      <!-- 600 -->
      <g transform="translate(275.465389 332.318437)scale(0.1 -0.1)">
       <defs>
        <path id="DejaVuSans-36" d="M 2113 2584 
Q 1688 2584 1439 2293 
Q 1191 2003 1191 1497 
Q 1191 994 1439 701 
Q 1688 409 2113 409 
Q 2538 409 2786 701 
Q 3034 994 3034 1497 
Q 3034 2003 2786 2293 
Q 2538 2584 2113 2584 
z
M 3366 4563 
L 3366 3988 
Q 3128 4100 2886 4159 
Q 2644 4219 2406 4219 
Q 1781 4219 1451 3797 
Q 1122 3375 1075 2522 
Q 1259 2794 1537 2939 
Q 1816 3084 2150 3084 
Q 2853 3084 3261 2657 
Q 3669 2231 3669 1497 
Q 3669 778 3244 343 
Q 2819 -91 2113 -91 
Q 1303 -91 875 529 
Q 447 1150 447 2328 
Q 447 3434 972 4092 
Q 1497 4750 2381 4750 
Q 2619 4750 2861 4703 
Q 3103 4656 3366 4563 
z
" transform="scale(0.015625)"/>
       </defs>
       <use xlink:href="#DejaVuSans-36"/>
       <use xlink:href="#DejaVuSans-30" x="63.623047"/>
       <use xlink:href="#DejaVuSans-30" x="127.246094"/>
      </g>
     </g>
    </g>
    <g id="xtick_5">
     <g id="line2d_9">
      <path d="M 358.509912 317.72 
L 358.509912 10.8 
" clip-path="url(#pbf2ab566e1)" style="fill: none; stroke: #b0b0b0; stroke-width: 0.8; stroke-linecap: square"/>
     </g>
     <g id="line2d_10">
      <g>
       <use xlink:href="#m8537c3c953" x="358.509912" y="317.72" style="stroke: #000000; stroke-width: 0.8"/>
      </g>
     </g>
     <g id="text_5">
      <!-- 800 -->
      <g transform="translate(348.966162 332.318437)scale(0.1 -0.1)">
       <defs>
        <path id="DejaVuSans-38" d="M 2034 2216 
Q 1584 2216 1326 1975 
Q 1069 1734 1069 1313 
Q 1069 891 1326 650 
Q 1584 409 2034 409 
Q 2484 409 2743 651 
Q 3003 894 3003 1313 
Q 3003 1734 2745 1975 
Q 2488 2216 2034 2216 
z
M 1403 2484 
Q 997 2584 770 2862 
Q 544 3141 544 3541 
Q 544 4100 942 4425 
Q 1341 4750 2034 4750 
Q 2731 4750 3128 4425 
Q 3525 4100 3525 3541 
Q 3525 3141 3298 2862 
Q 3072 2584 2669 2484 
Q 3125 2378 3379 2068 
Q 3634 1759 3634 1313 
Q 3634 634 3220 271 
Q 2806 -91 2034 -91 
Q 1263 -91 848 271 
Q 434 634 434 1313 
Q 434 1759 690 2068 
Q 947 2378 1403 2484 
z
M 1172 3481 
Q 1172 3119 1398 2916 
Q 1625 2713 2034 2713 
Q 2441 2713 2670 2916 
Q 2900 3119 2900 3481 
Q 2900 3844 2670 4047 
Q 2441 4250 2034 4250 
Q 1625 4250 1398 4047 
Q 1172 3844 1172 3481 
z
" transform="scale(0.015625)"/>
       </defs>
       <use xlink:href="#DejaVuSans-38"/>
       <use xlink:href="#DejaVuSans-30" x="63.623047"/>
       <use xlink:href="#DejaVuSans-30" x="127.246094"/>
      </g>
     </g>
    </g>
    <g id="xtick_6">
     <g id="line2d_11">
      <path d="M 432.010686 317.72 
L 432.010686 10.8 
" clip-path="url(#pbf2ab566e1)" style="fill: none; stroke: #b0b0b0; stroke-width: 0.8; stroke-linecap: square"/>
     </g>
     <g id="line2d_12">
      <g>
       <use xlink:href="#m8537c3c953" x="432.010686" y="317.72" style="stroke: #000000; stroke-width: 0.8"/>
      </g>
     </g>
     <g id="text_6">
      <!-- 1000 -->
      <g transform="translate(419.285686 332.318437)scale(0.1 -0.1)">
       <defs>
        <path id="DejaVuSans-31" d="M 794 531 
L 1825 531 
L 1825 4091 
L 703 3866 
L 703 4441 
L 1819 4666 
L 2450 4666 
L 2450 531 
L 3481 531 
L 3481 0 
L 794 0 
L 794 531 
z
" transform="scale(0.015625)"/>
       </defs>
       <use xlink:href="#DejaVuSans-31"/>
       <use xlink:href="#DejaVuSans-30" x="63.623047"/>
       <use xlink:href="#DejaVuSans-30" x="127.246094"/>
       <use xlink:href="#DejaVuSans-30" x="190.869141"/>
      </g>
     </g>
    </g>
    <g id="text_7">
     <!-- Epoch -->
     <g transform="translate(232.764063 345.996562)scale(0.1 -0.1)">
      <defs>
       <path id="DejaVuSans-45" d="M 628 4666 
L 3578 4666 
L 3578 4134 
L 1259 4134 
L 1259 2753 
L 3481 2753 
L 3481 2222 
L 1259 2222 
L 1259 531 
L 3634 531 
L 3634 0 
L 628 0 
L 628 4666 
z
" transform="scale(0.015625)"/>
       <path id="DejaVuSans-70" d="M 1159 525 
L 1159 -1331 
L 581 -1331 
L 581 3500 
L 1159 3500 
L 1159 2969 
Q 1341 3281 1617 3432 
Q 1894 3584 2278 3584 
Q 2916 3584 3314 3078 
Q 3713 2572 3713 1747 
Q 3713 922 3314 415 
Q 2916 -91 2278 -91 
Q 1894 -91 1617 61 
Q 1341 213 1159 525 
z
M 3116 1747 
Q 3116 2381 2855 2742 
Q 2594 3103 2138 3103 
Q 1681 3103 1420 2742 
Q 1159 2381 1159 1747 
Q 1159 1113 1420 752 
Q 1681 391 2138 391 
Q 2594 391 2855 752 
Q 3116 1113 3116 1747 
z
" transform="scale(0.015625)"/>
       <path id="DejaVuSans-6f" d="M 1959 3097 
Q 1497 3097 1228 2736 
Q 959 2375 959 1747 
Q 959 1119 1226 758 
Q 1494 397 1959 397 
Q 2419 397 2687 759 
Q 2956 1122 2956 1747 
Q 2956 2369 2687 2733 
Q 2419 3097 1959 3097 
z
M 1959 3584 
Q 2709 3584 3137 3096 
Q 3566 2609 3566 1747 
Q 3566 888 3137 398 
Q 2709 -91 1959 -91 
Q 1206 -91 779 398 
Q 353 888 353 1747 
Q 353 2609 779 3096 
Q 1206 3584 1959 3584 
z
" transform="scale(0.015625)"/>
       <path id="DejaVuSans-63" d="M 3122 3366 
L 3122 2828 
Q 2878 2963 2633 3030 
Q 2388 3097 2138 3097 
Q 1578 3097 1268 2742 
Q 959 2388 959 1747 
Q 959 1106 1268 751 
Q 1578 397 2138 397 
Q 2388 397 2633 464 
Q 2878 531 3122 666 
L 3122 134 
Q 2881 22 2623 -34 
Q 2366 -91 2075 -91 
Q 1284 -91 818 406 
Q 353 903 353 1747 
Q 353 2603 823 3093 
Q 1294 3584 2113 3584 
Q 2378 3584 2631 3529 
Q 2884 3475 3122 3366 
z
" transform="scale(0.015625)"/>
       <path id="DejaVuSans-68" d="M 3513 2113 
L 3513 0 
L 2938 0 
L 2938 2094 
Q 2938 2591 2744 2837 
Q 2550 3084 2163 3084 
Q 1697 3084 1428 2787 
Q 1159 2491 1159 1978 
L 1159 0 
L 581 0 
L 581 4863 
L 1159 4863 
L 1159 2956 
Q 1366 3272 1645 3428 
Q 1925 3584 2291 3584 
Q 2894 3584 3203 3211 
Q 3513 2838 3513 2113 
z
" transform="scale(0.015625)"/>
      </defs>
      <use xlink:href="#DejaVuSans-45"/>
      <use xlink:href="#DejaVuSans-70" x="63.183594"/>
      <use xlink:href="#DejaVuSans-6f" x="126.660156"/>
      <use xlink:href="#DejaVuSans-63" x="187.841797"/>
      <use xlink:href="#DejaVuSans-68" x="242.822266"/>
     </g>
    </g>
   </g>
   <g id="matplotlib.axis_2">
    <g id="ytick_1">
     <g id="line2d_13">
      <path d="M 46.15 309.519015 
L 450 309.519015 
" clip-path="url(#pbf2ab566e1)" style="fill: none; stroke: #b0b0b0; stroke-width: 0.8; stroke-linecap: square"/>
     </g>
     <g id="line2d_14">
      <defs>
       <path id="m785e2d39c0" d="M 0 0 
L -3.5 0 
" style="stroke: #000000; stroke-width: 0.8"/>
      </defs>
      <g>
       <use xlink:href="#m785e2d39c0" x="46.15" y="309.519015" style="stroke: #000000; stroke-width: 0.8"/>
      </g>
     </g>
     <g id="text_8">
      <!-- 0.035 -->
      <g transform="translate(10.521875 313.318234)scale(0.1 -0.1)">
       <defs>
        <path id="DejaVuSans-2e" d="M 684 794 
L 1344 794 
L 1344 0 
L 684 0 
L 684 794 
z
" transform="scale(0.015625)"/>
        <path id="DejaVuSans-33" d="M 2597 2516 
Q 3050 2419 3304 2112 
Q 3559 1806 3559 1356 
Q 3559 666 3084 287 
Q 2609 -91 1734 -91 
Q 1441 -91 1130 -33 
Q 819 25 488 141 
L 488 750 
Q 750 597 1062 519 
Q 1375 441 1716 441 
Q 2309 441 2620 675 
Q 2931 909 2931 1356 
Q 2931 1769 2642 2001 
Q 2353 2234 1838 2234 
L 1294 2234 
L 1294 2753 
L 1863 2753 
Q 2328 2753 2575 2939 
Q 2822 3125 2822 3475 
Q 2822 3834 2567 4026 
Q 2313 4219 1838 4219 
Q 1578 4219 1281 4162 
Q 984 4106 628 3988 
L 628 4550 
Q 988 4650 1302 4700 
Q 1616 4750 1894 4750 
Q 2613 4750 3031 4423 
Q 3450 4097 3450 3541 
Q 3450 3153 3228 2886 
Q 3006 2619 2597 2516 
z
" transform="scale(0.015625)"/>
        <path id="DejaVuSans-35" d="M 691 4666 
L 3169 4666 
L 3169 4134 
L 1269 4134 
L 1269 2991 
Q 1406 3038 1543 3061 
Q 1681 3084 1819 3084 
Q 2600 3084 3056 2656 
Q 3513 2228 3513 1497 
Q 3513 744 3044 326 
Q 2575 -91 1722 -91 
Q 1428 -91 1123 -41 
Q 819 9 494 109 
L 494 744 
Q 775 591 1075 516 
Q 1375 441 1709 441 
Q 2250 441 2565 725 
Q 2881 1009 2881 1497 
Q 2881 1984 2565 2268 
Q 2250 2553 1709 2553 
Q 1456 2553 1204 2497 
Q 953 2441 691 2322 
L 691 4666 
z
" transform="scale(0.015625)"/>
       </defs>
       <use xlink:href="#DejaVuSans-30"/>
       <use xlink:href="#DejaVuSans-2e" x="63.623047"/>
       <use xlink:href="#DejaVuSans-30" x="95.410156"/>
       <use xlink:href="#DejaVuSans-33" x="159.033203"/>
       <use xlink:href="#DejaVuSans-35" x="222.65625"/>
      </g>
     </g>
    </g>
    <g id="ytick_2">
     <g id="line2d_15">
      <path d="M 46.15 247.68472 
L 450 247.68472 
" clip-path="url(#pbf2ab566e1)" style="fill: none; stroke: #b0b0b0; stroke-width: 0.8; stroke-linecap: square"/>
     </g>
     <g id="line2d_16">
      <g>
       <use xlink:href="#m785e2d39c0" x="46.15" y="247.68472" style="stroke: #000000; stroke-width: 0.8"/>
      </g>
     </g>
     <g id="text_9">
      <!-- 0.040 -->
      <g transform="translate(10.521875 251.483938)scale(0.1 -0.1)">
       <use xlink:href="#DejaVuSans-30"/>
       <use xlink:href="#DejaVuSans-2e" x="63.623047"/>
       <use xlink:href="#DejaVuSans-30" x="95.410156"/>
       <use xlink:href="#DejaVuSans-34" x="159.033203"/>
       <use xlink:href="#DejaVuSans-30" x="222.65625"/>
      </g>
     </g>
    </g>
    <g id="ytick_3">
     <g id="line2d_17">
      <path d="M 46.15 185.850425 
L 450 185.850425 
" clip-path="url(#pbf2ab566e1)" style="fill: none; stroke: #b0b0b0; stroke-width: 0.8; stroke-linecap: square"/>
     </g>
     <g id="line2d_18">
      <g>
       <use xlink:href="#m785e2d39c0" x="46.15" y="185.850425" style="stroke: #000000; stroke-width: 0.8"/>
      </g>
     </g>
     <g id="text_10">
      <!-- 0.045 -->
      <g transform="translate(10.521875 189.649643)scale(0.1 -0.1)">
       <use xlink:href="#DejaVuSans-30"/>
       <use xlink:href="#DejaVuSans-2e" x="63.623047"/>
       <use xlink:href="#DejaVuSans-30" x="95.410156"/>
       <use xlink:href="#DejaVuSans-34" x="159.033203"/>
       <use xlink:href="#DejaVuSans-35" x="222.65625"/>
      </g>
     </g>
    </g>
    <g id="ytick_4">
     <g id="line2d_19">
      <path d="M 46.15 124.01613 
L 450 124.01613 
" clip-path="url(#pbf2ab566e1)" style="fill: none; stroke: #b0b0b0; stroke-width: 0.8; stroke-linecap: square"/>
     </g>
     <g id="line2d_20">
      <g>
       <use xlink:href="#m785e2d39c0" x="46.15" y="124.01613" style="stroke: #000000; stroke-width: 0.8"/>
      </g>
     </g>
     <g id="text_11">
      <!-- 0.050 -->
      <g transform="translate(10.521875 127.815348)scale(0.1 -0.1)">
       <use xlink:href="#DejaVuSans-30"/>
       <use xlink:href="#DejaVuSans-2e" x="63.623047"/>
       <use xlink:href="#DejaVuSans-30" x="95.410156"/>
       <use xlink:href="#DejaVuSans-35" x="159.033203"/>
       <use xlink:href="#DejaVuSans-30" x="222.65625"/>
      </g>
     </g>
    </g>
    <g id="ytick_5">
     <g id="line2d_21">
      <path d="M 46.15 62.181834 
L 450 62.181834 
" clip-path="url(#pbf2ab566e1)" style="fill: none; stroke: #b0b0b0; stroke-width: 0.8; stroke-linecap: square"/>
     </g>
     <g id="line2d_22">
      <g>
       <use xlink:href="#m785e2d39c0" x="46.15" y="62.181834" style="stroke: #000000; stroke-width: 0.8"/>
      </g>
     </g>
     <g id="text_12">
      <!-- 0.055 -->
      <g transform="translate(10.521875 65.981053)scale(0.1 -0.1)">
       <use xlink:href="#DejaVuSans-30"/>
       <use xlink:href="#DejaVuSans-2e" x="63.623047"/>
       <use xlink:href="#DejaVuSans-30" x="95.410156"/>
       <use xlink:href="#DejaVuSans-35" x="159.033203"/>
       <use xlink:href="#DejaVuSans-35" x="222.65625"/>
      </g>
     </g>
    </g>
    <g id="text_13">
     <!-- Loss -->
     <g transform="translate(4.442188 175.227187)rotate(-90)scale(0.1 -0.1)">
      <defs>
       <path id="DejaVuSans-4c" d="M 628 4666 
L 1259 4666 
L 1259 531 
L 3531 531 
L 3531 0 
L 628 0 
L 628 4666 
z
" transform="scale(0.015625)"/>
       <path id="DejaVuSans-73" d="M 2834 3397 
L 2834 2853 
Q 2591 2978 2328 3040 
Q 2066 3103 1784 3103 
Q 1356 3103 1142 2972 
Q 928 2841 928 2578 
Q 928 2378 1081 2264 
Q 1234 2150 1697 2047 
L 1894 2003 
Q 2506 1872 2764 1633 
Q 3022 1394 3022 966 
Q 3022 478 2636 193 
Q 2250 -91 1575 -91 
Q 1294 -91 989 -36 
Q 684 19 347 128 
L 347 722 
Q 666 556 975 473 
Q 1284 391 1588 391 
Q 1994 391 2212 530 
Q 2431 669 2431 922 
Q 2431 1156 2273 1281 
Q 2116 1406 1581 1522 
L 1381 1569 
Q 847 1681 609 1914 
Q 372 2147 372 2553 
Q 372 3047 722 3315 
Q 1072 3584 1716 3584 
Q 2034 3584 2315 3537 
Q 2597 3491 2834 3397 
z
" transform="scale(0.015625)"/>
      </defs>
      <use xlink:href="#DejaVuSans-4c"/>
      <use xlink:href="#DejaVuSans-6f" x="53.962891"/>
      <use xlink:href="#DejaVuSans-73" x="115.144531"/>
      <use xlink:href="#DejaVuSans-73" x="167.244141"/>
     </g>
    </g>
   </g>
   <g id="line2d_23">
    <path d="M 64.506818 24.750909 
L 65.241826 116.515164 
L 65.60933 120.573207 
L 65.976834 91.259376 
L 66.344338 108.915112 
L 66.711841 165.705635 
L 67.079345 153.911909 
L 67.446849 191.75102 
L 68.549361 228.056594 
L 68.916865 204.626196 
L 69.651872 248.400753 
L 70.019376 250.032097 
L 70.38688 262.730962 
L 70.754384 247.276181 
L 71.121888 242.948121 
L 71.489392 245.694086 
L 72.224399 268.296465 
L 72.591903 241.554315 
L 72.959407 274.439642 
L 73.326911 249.890154 
L 73.694415 250.701127 
L 74.061919 240.959181 
L 74.429423 252.750603 
L 74.796926 253.637822 
L 75.16443 223.432027 
L 75.531934 225.904105 
L 75.899438 285.203101 
L 76.266942 222.190575 
L 76.634446 289.346741 
L 77.00195 224.137637 
L 77.369454 231.8425 
L 77.736957 242.676308 
L 78.104461 246.971657 
L 78.471965 235.566856 
L 78.839469 254.319891 
L 79.206973 258.404101 
L 79.574477 254.679975 
L 79.941981 235.964026 
L 80.309484 269.336545 
L 80.676988 254.904889 
L 81.044492 246.164693 
L 81.411996 264.120437 
L 81.7795 248.137416 
L 82.147004 267.751916 
L 82.514508 269.183177 
L 82.882012 248.944104 
L 83.249515 240.12826 
L 83.617019 274.26605 
L 83.984523 272.097759 
L 84.352027 229.326701 
L 84.719531 214.29208 
L 85.087035 259.455559 
L 85.454539 240.408505 
L 85.822042 231.960071 
L 86.189546 239.437485 
L 86.55705 275.354595 
L 86.924554 224.641691 
L 87.292058 265.601777 
L 87.659562 276.487414 
L 88.027066 259.863741 
L 88.39457 267.11624 
L 88.762073 225.414471 
L 89.129577 267.993186 
L 89.497081 269.728049 
L 89.864585 242.780426 
L 90.232089 272.320323 
L 90.599593 276.854362 
L 90.967097 274.020726 
L 91.334601 248.817503 
L 91.702104 215.434205 
L 92.069608 258.203695 
L 92.437112 255.367387 
L 92.804616 257.839189 
L 93.17212 255.342832 
L 93.539624 258.868626 
L 93.907128 264.627347 
L 94.274631 259.773582 
L 94.642135 266.417771 
L 95.377143 286.257232 
L 95.744647 246.753377 
L 96.112151 237.680738 
L 96.479655 242.962541 
L 96.847159 260.443856 
L 97.214662 244.472352 
L 97.582166 264.690509 
L 97.94967 267.738326 
L 98.317174 246.474468 
L 98.684678 241.747349 
L 99.052182 247.00515 
L 99.419686 263.227276 
L 99.787189 244.701413 
L 100.154693 243.323178 
L 100.889701 275.592778 
L 101.257205 226.009467 
L 101.624709 259.367013 
L 101.992213 228.982834 
L 102.359717 249.635433 
L 102.72722 261.176694 
L 103.094724 250.452164 
L 103.462228 253.312751 
L 103.829732 239.658391 
L 104.197236 265.72612 
L 104.932244 246.607703 
L 105.299747 270.50235 
L 105.667251 274.427433 
L 106.034755 274.819352 
L 106.402259 242.200403 
L 106.769763 262.446341 
L 107.137267 254.596403 
L 107.504771 250.118294 
L 107.872275 267.115642 
L 108.239778 271.509904 
L 108.607282 280.330631 
L 108.974786 279.052277 
L 109.34229 262.893682 
L 109.709794 254.827169 
L 110.077298 259.587596 
L 110.444802 238.135819 
L 110.812305 244.266465 
L 111.179809 280.245309 
L 111.547313 251.783269 
L 111.914817 253.1123 
L 112.282321 253.040338 
L 112.649825 239.663274 
L 113.017329 248.929223 
L 113.752336 241.791991 
L 114.11984 266.443801 
L 114.487344 253.423043 
L 114.854848 295.686684 
L 115.222352 298.3494 
L 115.589856 253.060425 
L 115.95736 232.107403 
L 116.324863 283.113682 
L 116.692367 247.789126 
L 117.059871 250.236233 
L 117.427375 280.99616 
L 117.794879 249.161141 
L 118.162383 266.317845 
L 118.529887 247.0198 
L 118.897391 254.809985 
L 119.264894 240.789136 
L 119.632398 254.810722 
L 119.999902 234.945093 
L 120.367406 254.938659 
L 120.73491 253.582123 
L 121.102414 275.532288 
L 121.469918 245.987507 
L 121.837422 259.529272 
L 122.204925 262.807945 
L 122.572429 226.571431 
L 122.939933 266.936198 
L 123.307437 268.638168 
L 123.674941 263.158493 
L 124.042445 267.226855 
L 124.409949 291.726495 
L 124.777452 232.974167 
L 125.144956 237.49549 
L 125.51246 278.481698 
L 125.879964 253.629299 
L 126.247468 241.213028 
L 126.614972 241.643139 
L 126.982476 294.191616 
L 127.34998 242.186812 
L 127.717483 255.234106 
L 128.084987 250.348506 
L 128.452491 238.273292 
L 128.819995 234.287488 
L 129.187499 291.072575 
L 129.555003 246.80516 
L 129.922507 303.769091 
L 130.29001 263.683923 
L 131.025018 272.555465 
L 131.392522 233.414136 
L 131.760026 238.743392 
L 132.12753 279.22785 
L 132.495034 241.727263 
L 132.862538 288.192316 
L 133.597545 228.645416 
L 133.965049 285.643485 
L 134.332553 237.610988 
L 134.700057 247.81663 
L 135.067561 276.159809 
L 135.435065 276.310781 
L 135.802568 254.521632 
L 136.170072 256.434187 
L 136.537576 278.205001 
L 136.90508 284.074981 
L 137.272584 225.199462 
L 137.640088 251.89204 
L 138.007592 229.80666 
L 138.375096 214.888458 
L 138.742599 214.831884 
L 139.110103 265.118178 
L 139.477607 249.962761 
L 139.845111 283.250787 
L 140.212615 275.151656 
L 140.580119 274.551178 
L 140.947623 253.037666 
L 141.315126 209.983923 
L 141.68263 224.569361 
L 142.050134 269.456972 
L 142.417638 263.374746 
L 142.785142 252.811093 
L 143.152646 250.350764 
L 143.52015 245.277888 
L 143.887654 249.361546 
L 144.255157 239.632822 
L 144.622661 267.338851 
L 145.357669 246.727854 
L 145.725173 277.339112 
L 146.092677 264.942974 
L 146.460181 231.522082 
L 146.827685 259.61768 
L 147.562692 229.341951 
L 147.930196 237.006271 
L 148.2977 265.653606 
L 148.665204 238.279189 
L 149.400212 278.676851 
L 150.135219 235.081783 
L 150.502723 264.042947 
L 150.870227 267.941817 
L 151.237731 276.160684 
L 151.605235 242.946924 
L 151.972739 244.640508 
L 152.340243 213.752414 
L 153.07525 274.41435 
L 153.442754 224.793952 
L 153.810258 252.364766 
L 154.177762 252.592813 
L 154.545266 263.7094 
L 154.91277 230.626985 
L 155.280273 243.019023 
L 155.647777 234.157893 
L 156.015281 254.723511 
L 156.382785 264.704975 
L 156.750289 252.584797 
L 157.117793 253.055035 
L 157.485297 272.691787 
L 157.852801 255.632152 
L 158.220304 269.080902 
L 158.587808 255.774878 
L 158.955312 277.671324 
L 159.322816 245.979352 
L 159.69032 234.453294 
L 160.057824 236.729528 
L 160.425328 276.403935 
L 160.792831 259.387191 
L 161.160335 286.832141 
L 161.527839 266.38004 
L 161.895343 273.947889 
L 162.630351 260.086905 
L 162.997855 255.524394 
L 163.365359 232.135321 
L 164.100366 267.572519 
L 164.46787 230.877607 
L 164.835374 278.863758 
L 165.202878 253.690941 
L 165.570382 242.936374 
L 165.937886 284.80441 
L 166.305389 246.826859 
L 166.672893 236.483283 
L 167.040397 240.013684 
L 167.407901 237.371884 
L 167.775405 290.98776 
L 168.142909 242.800605 
L 168.510413 249.78364 
L 168.877917 264.446706 
L 169.24542 243.597941 
L 169.612924 265.730635 
L 169.980428 236.068836 
L 170.347932 220.712875 
L 170.715436 267.774583 
L 171.08294 239.298998 
L 171.450444 266.585881 
L 171.817947 214.104574 
L 172.185451 219.350996 
L 172.552955 251.127967 
L 172.920459 242.520775 
L 173.287963 268.093342 
L 173.655467 282.07973 
L 174.022971 278.472714 
L 174.390475 301.44863 
L 174.757978 258.195771 
L 175.125482 286.758291 
L 175.492986 250.31294 
L 175.86049 262.212397 
L 176.227994 266.524055 
L 176.595498 292.159185 
L 176.963002 283.202782 
L 177.330506 237.989086 
L 177.698009 231.335636 
L 178.065513 289.395438 
L 178.433017 243.2731 
L 178.800521 235.601224 
L 179.168025 273.691555 
L 179.535529 250.787048 
L 179.903033 264.039538 
L 180.63804 212.499445 
L 181.005544 274.72219 
L 181.373048 247.604615 
L 181.740552 241.398691 
L 182.108056 241.986269 
L 182.47556 271.644843 
L 182.843064 259.124591 
L 183.210567 230.479238 
L 183.578071 266.282555 
L 183.945575 233.974165 
L 184.313079 232.395433 
L 184.680583 283.634873 
L 185.048087 278.824552 
L 185.415591 249.419225 
L 185.783094 234.352585 
L 186.518102 277.719513 
L 186.885606 238.794069 
L 187.25311 221.144276 
L 187.620614 248.595676 
L 187.988118 247.321928 
L 188.355622 267.164015 
L 188.723125 268.412332 
L 189.090629 263.460667 
L 189.458133 264.202258 
L 189.825637 276.620142 
L 190.193141 268.286652 
L 190.560645 264.523229 
L 191.295652 238.64084 
L 191.663156 257.932941 
L 192.03066 236.782785 
L 192.398164 247.183119 
L 193.133172 240.67843 
L 193.500676 277.179019 
L 193.86818 250.851224 
L 194.603187 233.477529 
L 194.970691 251.596178 
L 195.338195 244.320827 
L 195.705699 243.620101 
L 196.073203 270.235005 
L 196.440707 262.526825 
L 196.80821 234.584502 
L 197.175714 261.896724 
L 197.543218 265.473702 
L 197.910722 236.664799 
L 198.278226 261.878803 
L 198.64573 248.595123 
L 199.013234 265.752703 
L 199.380738 248.574207 
L 199.748241 222.552272 
L 200.483249 257.15947 
L 200.850753 235.328904 
L 201.218257 239.777252 
L 201.585761 254.638972 
L 201.953265 261.398614 
L 202.320768 248.218592 
L 202.688272 222.353203 
L 203.055776 265.865252 
L 203.42328 253.891899 
L 203.790784 231.064467 
L 204.158288 235.049718 
L 204.525792 267.341754 
L 204.893296 217.742227 
L 205.260799 268.623748 
L 205.628303 228.470073 
L 205.995807 274.132492 
L 206.363311 240.957293 
L 206.730815 268.833827 
L 207.098319 230.49656 
L 207.465823 263.963845 
L 207.833327 266.671525 
L 208.20083 246.591348 
L 208.568334 271.983781 
L 208.935838 275.987368 
L 209.303342 256.347207 
L 209.670846 245.751443 
L 210.03835 241.995345 
L 210.405854 276.097292 
L 210.773357 278.42798 
L 211.140861 241.860083 
L 211.508365 233.74128 
L 211.875869 250.341688 
L 212.243373 259.922434 
L 212.610877 266.471857 
L 213.345885 233.402757 
L 214.080892 266.072291 
L 214.8159 241.719707 
L 215.183404 235.513783 
L 215.550908 263.838258 
L 215.918412 250.52302 
L 216.653419 256.393093 
L 217.020923 255.051024 
L 217.388427 264.504202 
L 217.755931 237.427398 
L 218.123435 274.547676 
L 218.490939 259.837204 
L 218.858443 226.773771 
L 219.225946 256.4821 
L 219.59345 250.505145 
L 219.960954 249.577799 
L 220.328458 246.659947 
L 220.695962 246.633594 
L 221.063466 278.136586 
L 221.43097 292.920356 
L 221.798473 235.338993 
L 222.165977 256.711714 
L 222.533481 260.193972 
L 222.900985 257.841077 
L 223.268489 209.458539 
L 223.635993 258.553368 
L 224.003497 248.8785 
L 224.371001 279.20159 
L 224.738504 249.290367 
L 225.106008 250.56393 
L 225.473512 249.835377 
L 225.841016 243.140741 
L 226.20852 245.306129 
L 226.576024 232.104823 
L 226.943528 261.268281 
L 227.311031 249.57462 
L 227.678535 263.619517 
L 228.046039 251.865366 
L 228.413543 256.841816 
L 228.781047 234.516779 
L 229.148551 256.84974 
L 229.516055 248.167269 
L 229.883559 251.897246 
L 230.251062 247.94839 
L 230.618566 242.396155 
L 230.98607 275.998011 
L 231.353574 241.564128 
L 231.721078 240.360454 
L 232.088582 247.741673 
L 232.456086 242.1131 
L 232.823589 274.132631 
L 233.191093 227.798094 
L 233.558597 248.500725 
L 233.926101 277.004781 
L 234.293605 250.71458 
L 234.661109 241.187966 
L 235.028613 259.536412 
L 235.396117 266.147984 
L 235.76362 268.855803 
L 236.131124 251.295893 
L 236.498628 258.718944 
L 236.866132 252.467502 
L 237.233636 262.801357 
L 237.968644 238.943014 
L 238.336148 234.175445 
L 238.703651 276.603004 
L 239.071155 266.745238 
L 239.438659 245.036849 
L 239.806163 253.444466 
L 240.173667 246.835888 
L 240.541171 205.746668 
L 240.908675 273.70556 
L 241.276178 247.181829 
L 241.643682 245.661054 
L 242.011186 280.702601 
L 242.37869 264.594085 
L 243.113698 251.628473 
L 243.481202 269.38455 
L 243.848706 239.140194 
L 244.216209 250.616819 
L 244.583713 267.267765 
L 244.951217 263.960067 
L 245.686225 246.182245 
L 246.053729 246.308708 
L 246.421233 267.134484 
L 246.788736 228.001955 
L 247.15624 293.468268 
L 247.523744 235.473886 
L 247.891248 230.581698 
L 248.258752 276.449222 
L 248.626256 233.147252 
L 249.361264 266.266523 
L 249.728767 283.534901 
L 250.096271 249.708638 
L 250.463775 231.742297 
L 250.831279 284.639202 
L 251.198783 243.757205 
L 251.566287 241.731409 
L 251.933791 222.184586 
L 252.301294 253.057154 
L 252.668798 266.078372 
L 253.036302 271.435685 
L 253.403806 251.75535 
L 253.77131 247.889466 
L 254.138814 288.963069 
L 254.506318 287.67504 
L 255.241325 269.352623 
L 255.608829 259.056868 
L 255.976333 251.880799 
L 256.343837 261.581512 
L 256.711341 262.614865 
L 257.078845 241.515617 
L 257.446349 283.143489 
L 257.813852 266.161713 
L 258.181356 267.762835 
L 258.54886 261.043735 
L 258.916364 252.072405 
L 259.283868 250.756549 
L 259.651372 284.863149 
L 260.018876 243.375744 
L 260.38638 271.131576 
L 261.121387 256.022182 
L 261.488891 246.579646 
L 261.856395 232.370786 
L 262.223899 242.64498 
L 262.591403 259.410457 
L 262.958907 250.47741 
L 263.326411 251.756686 
L 263.693914 259.779525 
L 264.061418 271.111397 
L 264.428922 254.156249 
L 264.796426 245.483085 
L 265.16393 243.655206 
L 265.531434 248.090977 
L 265.898938 233.2604 
L 266.266441 261.108418 
L 266.633945 230.188904 
L 267.001449 268.615409 
L 267.736457 248.452444 
L 268.103961 227.830481 
L 268.471465 277.297419 
L 268.838969 299.893533 
L 269.206472 235.5892 
L 269.573976 260.724423 
L 269.94148 245.943187 
L 270.308984 280.555822 
L 270.676488 224.765758 
L 271.043992 266.414085 
L 271.411496 274.372241 
L 271.778999 256.502463 
L 272.146503 212.466504 
L 272.514007 239.628491 
L 272.881511 245.710579 
L 273.249015 238.149456 
L 273.616519 268.172491 
L 273.984023 248.460598 
L 274.71903 297.368612 
L 275.086534 277.799814 
L 275.454038 290.792607 
L 275.821542 257.451508 
L 276.189046 249.953547 
L 276.55655 260.602061 
L 276.924054 235.17162 
L 277.291557 274.538923 
L 277.659061 259.386178 
L 278.026565 280.030253 
L 278.394069 290.797398 
L 278.761573 254.617872 
L 279.129077 251.62147 
L 279.496581 271.451072 
L 279.864085 254.792109 
L 280.231588 261.911328 
L 280.599092 276.996443 
L 280.966596 248.864126 
L 281.3341 273.127887 
L 281.701604 247.6212 
L 282.069108 258.257367 
L 282.436612 272.248454 
L 282.804115 241.400625 
L 283.171619 255.932438 
L 283.539123 254.976436 
L 283.906627 247.242135 
L 284.274131 271.616418 
L 284.641635 287.262989 
L 285.009139 230.215164 
L 285.376643 224.617181 
L 285.744146 241.126923 
L 286.11165 263.030142 
L 286.479154 239.879528 
L 286.846658 246.635161 
L 287.214162 277.781616 
L 287.581666 236.315219 
L 287.94917 238.114811 
L 288.316673 269.938221 
L 288.684177 237.981392 
L 289.051681 277.509986 
L 289.419185 247.766966 
L 289.786689 260.113579 
L 290.154193 245.785858 
L 290.521697 242.047174 
L 291.256704 272.899149 
L 291.624208 264.52908 
L 291.991712 246.334691 
L 292.359216 253.207204 
L 292.72672 241.6688 
L 293.094224 215.058318 
L 293.461728 263.845399 
L 293.829232 242.33479 
L 294.196735 238.072334 
L 295.299247 262.237827 
L 295.666751 250.665192 
L 296.034255 230.097501 
L 296.401759 247.474236 
L 296.769262 233.037559 
L 297.136766 255.985004 
L 297.50427 271.457245 
L 297.871774 247.784196 
L 298.239278 276.26319 
L 298.606782 242.959317 
L 298.974286 274.216524 
L 299.34179 287.700932 
L 299.709293 224.373701 
L 300.076797 233.750218 
L 300.444301 228.359873 
L 301.179309 262.869357 
L 301.546813 235.939932 
L 301.914317 268.688154 
L 302.28182 248.688461 
L 302.649324 267.639229 
L 303.016828 243.080527 
L 303.384332 253.545405 
L 303.751836 302.688239 
L 304.11934 239.168988 
L 304.486844 244.124569 
L 304.854348 259.775148 
L 305.221851 217.889835 
L 305.589355 269.430067 
L 306.324363 234.657017 
L 306.691867 265.416068 
L 307.059371 250.820817 
L 307.426875 262.139514 
L 307.794378 243.238548 
L 308.161882 270.97655 
L 308.529386 269.093617 
L 308.89689 244.039753 
L 309.631898 287.363698 
L 309.999402 240.087166 
L 310.734409 274.56311 
L 311.101913 265.155219 
L 311.469417 247.785717 
L 311.836921 270.380909 
L 312.204425 237.912978 
L 312.571929 285.989426 
L 312.939433 241.457568 
L 313.306936 223.27525 
L 313.67444 265.824572 
L 314.041944 232.177752 
L 314.409448 273.555234 
L 314.776952 274.258632 
L 315.144456 258.921054 
L 315.51196 250.811235 
L 315.879464 251.653581 
L 316.246967 238.364465 
L 316.614471 237.548517 
L 316.981975 274.687776 
L 317.349479 238.47683 
L 317.716983 218.575635 
L 318.084487 260.171029 
L 318.451991 270.222658 
L 318.819494 213.04275 
L 319.186998 240.537225 
L 319.554502 219.925076 
L 319.922006 285.126302 
L 320.28951 253.726968 
L 320.657014 250.719187 
L 321.024518 263.217048 
L 321.392022 255.558256 
L 321.759525 260.097777 
L 322.127029 239.382845 
L 322.494533 246.399097 
L 322.862037 240.316595 
L 323.229541 244.461433 
L 323.597045 266.960247 
L 324.332053 216.78535 
L 324.699556 251.213796 
L 325.06706 232.138454 
L 325.434564 278.127833 
L 325.802068 255.948194 
L 326.169572 258.246034 
L 326.537076 273.058551 
L 326.90458 231.0588 
L 327.272083 224.790037 
L 327.639587 249.262357 
L 328.007091 241.962819 
L 328.374595 229.029779 
L 328.742099 264.66964 
L 329.109603 236.616886 
L 329.477107 245.342617 
L 329.844611 217.964837 
L 330.212114 265.433851 
L 330.579618 245.465486 
L 330.947122 256.689646 
L 331.314626 214.158845 
L 331.68213 240.907629 
L 332.417138 272.755548 
L 332.784641 253.16118 
L 333.152145 266.614537 
L 333.519649 269.699716 
L 333.887153 232.935744 
L 334.254657 268.826963 
L 334.989665 257.168545 
L 335.357169 255.682922 
L 335.724672 279.392366 
L 336.092176 232.667063 
L 336.45968 256.496198 
L 336.827184 247.174596 
L 337.194688 262.211107 
L 337.562192 231.034015 
L 338.297199 264.629236 
L 339.032207 227.454088 
L 339.399711 293.037789 
L 339.767215 250.929082 
L 340.134719 255.162467 
L 340.502223 240.756104 
L 340.869727 245.754392 
L 341.23723 257.529413 
L 341.604734 257.195635 
L 341.972238 275.37657 
L 342.339742 238.058744 
L 342.707246 223.550658 
L 343.07475 260.895988 
L 343.442254 234.859034 
L 343.809757 261.147393 
L 344.177261 259.742945 
L 344.544765 245.198187 
L 344.912269 276.506164 
L 345.279773 256.278701 
L 345.647277 254.619392 
L 346.014781 225.904151 
L 346.382285 224.564293 
L 346.749788 247.141702 
L 347.117292 238.498253 
L 347.484796 223.175785 
L 347.8523 253.689375 
L 348.219804 261.635829 
L 348.587308 208.796511 
L 348.954812 264.979922 
L 349.322315 259.191163 
L 349.689819 263.884789 
L 350.057323 250.360484 
L 350.424827 266.815172 
L 350.792331 266.329132 
L 351.159835 247.673674 
L 351.527339 278.535969 
L 351.894843 248.517587 
L 352.262346 231.313338 
L 352.62985 252.32943 
L 352.997354 262.615971 
L 353.364858 246.757062 
L 353.732362 256.368768 
L 354.099866 242.807285 
L 354.46737 249.156165 
L 354.834874 261.542721 
L 355.202377 282.057662 
L 355.569881 254.861261 
L 355.937385 261.835865 
L 356.304889 249.243882 
L 356.672393 225.088341 
L 357.039897 261.652875 
L 357.407401 248.252914 
L 357.774904 268.760069 
L 358.142408 256.734519 
L 358.509912 248.86408 
L 358.877416 234.55299 
L 359.24492 210.41173 
L 359.612424 233.413952 
L 359.979928 278.584711 
L 360.347432 237.96043 
L 360.714935 276.16308 
L 361.082439 246.346255 
L 361.449943 287.054061 
L 361.817447 255.467359 
L 362.184951 279.67344 
L 362.552455 288.858214 
L 362.919959 225.710288 
L 363.287462 233.481537 
L 363.654966 252.281425 
L 364.02247 259.617588 
L 364.389974 256.494355 
L 364.757478 250.618846 
L 365.124982 259.323522 
L 365.492486 250.66381 
L 365.85999 263.353969 
L 366.227493 265.706678 
L 366.594997 245.609133 
L 366.962501 254.223097 
L 367.330005 275.006765 
L 367.697509 260.450352 
L 368.065013 232.2446 
L 368.432517 248.988055 
L 368.80002 283.388721 
L 369.535028 225.711163 
L 369.902532 273.86266 
L 370.270036 247.513995 
L 370.63754 253.173665 
L 371.005044 240.568967 
L 371.372548 274.982625 
L 371.740051 242.114022 
L 372.107555 274.518146 
L 372.475059 264.524657 
L 372.842563 242.364459 
L 373.210067 260.039268 
L 373.577571 220.178738 
L 373.945075 214.268031 
L 374.312578 267.542113 
L 374.680082 270.015204 
L 375.047586 229.080825 
L 375.41509 244.833726 
L 375.782594 268.421223 
L 376.150098 268.62126 
L 376.517602 263.461634 
L 376.885106 255.769672 
L 377.252609 261.868667 
L 377.620113 247.328793 
L 377.987617 275.416006 
L 378.355121 258.47961 
L 378.722625 228.389082 
L 379.090129 295.107352 
L 379.457633 247.284888 
L 379.825137 239.773935 
L 380.19264 255.88821 
L 380.560144 266.07957 
L 380.927648 264.215803 
L 381.295152 256.867661 
L 381.662656 262.922061 
L 382.03016 254.204577 
L 382.397664 227.633992 
L 382.765167 272.100661 
L 383.132671 243.836907 
L 383.500175 259.387376 
L 383.867679 231.977439 
L 384.235183 249.075496 
L 384.602687 231.211938 
L 384.970191 255.150719 
L 385.337695 258.253912 
L 385.705198 249.763646 
L 386.072702 236.559759 
L 386.440206 274.795303 
L 386.80771 251.186384 
L 387.175214 261.205948 
L 387.542718 261.197103 
L 387.910222 264.365899 
L 388.277725 248.541036 
L 388.645229 258.006101 
L 389.012733 229.635279 
L 389.380237 252.990491 
L 389.747741 226.561572 
L 390.115245 267.381144 
L 390.482749 229.47841 
L 390.850253 289.225992 
L 391.217756 241.056528 
L 391.58526 248.617375 
L 391.952764 240.244173 
L 392.320268 279.85445 
L 392.687772 244.524596 
L 393.055276 273.167277 
L 393.42278 236.285872 
L 393.790283 267.306694 
L 394.157787 206.440069 
L 394.525291 261.614314 
L 394.892795 253.115709 
L 395.260299 237.016268 
L 395.627803 273.439874 
L 395.995307 277.58872 
L 396.362811 294.366406 
L 396.730314 243.699341 
L 397.097818 233.354107 
L 397.465322 227.926998 
L 397.832826 251.961422 
L 398.20033 258.525449 
L 398.567834 257.965282 
L 398.935338 225.576822 
L 399.302841 258.205538 
L 399.670345 270.419792 
L 400.037849 263.572663 
L 400.405353 227.469983 
L 400.772857 263.384651 
L 401.140361 266.495584 
L 401.507865 278.931435 
L 401.875369 265.570633 
L 402.610376 249.561306 
L 402.97788 232.911741 
L 403.345384 267.578186 
L 403.712888 247.241167 
L 404.080392 272.475626 
L 404.447896 228.534387 
L 404.815399 257.387978 
L 405.182903 265.338901 
L 405.550407 230.087504 
L 406.285415 250.635385 
L 406.652919 258.608514 
L 407.020423 245.370351 
L 407.387927 242.718692 
L 407.75543 236.797067 
L 408.122934 219.475293 
L 408.490438 281.849609 
L 408.857942 240.501843 
L 409.225446 245.451665 
L 409.59295 285.364991 
L 410.327958 232.38903 
L 410.695461 265.907682 
L 411.062965 252.686888 
L 411.430469 258.174902 
L 411.797973 282.163301 
L 412.165477 267.6255 
L 412.532981 269.349675 
L 412.900485 261.371294 
L 413.267988 226.989932 
L 413.635492 249.203894 
L 414.002996 223.983394 
L 414.3705 248.831785 
L 414.738004 258.356787 
L 415.105508 232.076444 
L 415.473012 278.869056 
L 415.840516 264.665908 
L 416.208019 266.138678 
L 416.575523 238.936887 
L 416.943027 276.618253 
L 417.310531 247.62765 
L 417.678035 268.987702 
L 418.045539 209.491894 
L 418.413043 257.239816 
L 418.780546 257.202085 
L 419.14805 247.012798 
L 419.515554 260.796016 
L 419.883058 266.612602 
L 420.250562 294.075657 
L 420.618066 223.4681 
L 420.98557 272.482629 
L 421.353074 258.883092 
L 422.088081 251.226511 
L 422.455585 271.743433 
L 422.823089 257.07318 
L 423.190593 271.532708 
L 423.558097 223.747423 
L 423.925601 265.043453 
L 424.293104 264.443619 
L 424.660608 249.084111 
L 425.395616 287.084882 
L 425.76312 232.939522 
L 426.130624 248.420932 
L 426.498128 270.439049 
L 426.865632 274.065921 
L 427.233135 273.281992 
L 427.600639 285.56125 
L 427.968143 228.636525 
L 428.335647 254.77253 
L 428.703151 258.379637 
L 429.070655 274.65608 
L 429.438159 270.220631 
L 429.805662 228.18559 
L 430.173166 250.233561 
L 430.54067 238.7685 
L 430.908174 279.900658 
L 431.275678 278.50653 
L 431.643182 230.958275 
L 431.643182 230.958275 
" clip-path="url(#pbf2ab566e1)" style="fill: none; stroke: #1f77b4; stroke-width: 1.5; stroke-linecap: square"/>
   </g>
   <g id="patch_3">
    <path d="M 46.15 317.72 
L 46.15 10.8 
" style="fill: none; stroke: #000000; stroke-width: 0.8; stroke-linejoin: miter; stroke-linecap: square"/>
   </g>
   <g id="patch_4">
    <path d="M 450 317.72 
L 450 10.8 
" style="fill: none; stroke: #000000; stroke-width: 0.8; stroke-linejoin: miter; stroke-linecap: square"/>
   </g>
   <g id="patch_5">
    <path d="M 46.15 317.72 
L 450 317.72 
" style="fill: none; stroke: #000000; stroke-width: 0.8; stroke-linejoin: miter; stroke-linecap: square"/>
   </g>
   <g id="patch_6">
    <path d="M 46.15 10.8 
L 450 10.8 
" style="fill: none; stroke: #000000; stroke-width: 0.8; stroke-linejoin: miter; stroke-linecap: square"/>
   </g>
   <g id="text_14">
    <!-- Training Losses -->
    <g transform="translate(202.519063 4.8)scale(0.12 -0.12)">
     <defs>
      <path id="DejaVuSans-54" d="M -19 4666 
L 3928 4666 
L 3928 4134 
L 2272 4134 
L 2272 0 
L 1638 0 
L 1638 4134 
L -19 4134 
L -19 4666 
z
" transform="scale(0.015625)"/>
      <path id="DejaVuSans-72" d="M 2631 2963 
Q 2534 3019 2420 3045 
Q 2306 3072 2169 3072 
Q 1681 3072 1420 2755 
Q 1159 2438 1159 1844 
L 1159 0 
L 581 0 
L 581 3500 
L 1159 3500 
L 1159 2956 
Q 1341 3275 1631 3429 
Q 1922 3584 2338 3584 
Q 2397 3584 2469 3576 
Q 2541 3569 2628 3553 
L 2631 2963 
z
" transform="scale(0.015625)"/>
      <path id="DejaVuSans-61" d="M 2194 1759 
Q 1497 1759 1228 1600 
Q 959 1441 959 1056 
Q 959 750 1161 570 
Q 1363 391 1709 391 
Q 2188 391 2477 730 
Q 2766 1069 2766 1631 
L 2766 1759 
L 2194 1759 
z
M 3341 1997 
L 3341 0 
L 2766 0 
L 2766 531 
Q 2569 213 2275 61 
Q 1981 -91 1556 -91 
Q 1019 -91 701 211 
Q 384 513 384 1019 
Q 384 1609 779 1909 
Q 1175 2209 1959 2209 
L 2766 2209 
L 2766 2266 
Q 2766 2663 2505 2880 
Q 2244 3097 1772 3097 
Q 1472 3097 1187 3025 
Q 903 2953 641 2809 
L 641 3341 
Q 956 3463 1253 3523 
Q 1550 3584 1831 3584 
Q 2591 3584 2966 3190 
Q 3341 2797 3341 1997 
z
" transform="scale(0.015625)"/>
      <path id="DejaVuSans-69" d="M 603 3500 
L 1178 3500 
L 1178 0 
L 603 0 
L 603 3500 
z
M 603 4863 
L 1178 4863 
L 1178 4134 
L 603 4134 
L 603 4863 
z
" transform="scale(0.015625)"/>
      <path id="DejaVuSans-6e" d="M 3513 2113 
L 3513 0 
L 2938 0 
L 2938 2094 
Q 2938 2591 2744 2837 
Q 2550 3084 2163 3084 
Q 1697 3084 1428 2787 
Q 1159 2491 1159 1978 
L 1159 0 
L 581 0 
L 581 3500 
L 1159 3500 
L 1159 2956 
Q 1366 3272 1645 3428 
Q 1925 3584 2291 3584 
Q 2894 3584 3203 3211 
Q 3513 2838 3513 2113 
z
" transform="scale(0.015625)"/>
      <path id="DejaVuSans-67" d="M 2906 1791 
Q 2906 2416 2648 2759 
Q 2391 3103 1925 3103 
Q 1463 3103 1205 2759 
Q 947 2416 947 1791 
Q 947 1169 1205 825 
Q 1463 481 1925 481 
Q 2391 481 2648 825 
Q 2906 1169 2906 1791 
z
M 3481 434 
Q 3481 -459 3084 -895 
Q 2688 -1331 1869 -1331 
Q 1566 -1331 1297 -1286 
Q 1028 -1241 775 -1147 
L 775 -588 
Q 1028 -725 1275 -790 
Q 1522 -856 1778 -856 
Q 2344 -856 2625 -561 
Q 2906 -266 2906 331 
L 2906 616 
Q 2728 306 2450 153 
Q 2172 0 1784 0 
Q 1141 0 747 490 
Q 353 981 353 1791 
Q 353 2603 747 3093 
Q 1141 3584 1784 3584 
Q 2172 3584 2450 3431 
Q 2728 3278 2906 2969 
L 2906 3500 
L 3481 3500 
L 3481 434 
z
" transform="scale(0.015625)"/>
      <path id="DejaVuSans-20" transform="scale(0.015625)"/>
      <path id="DejaVuSans-65" d="M 3597 1894 
L 3597 1613 
L 953 1613 
Q 991 1019 1311 708 
Q 1631 397 2203 397 
Q 2534 397 2845 478 
Q 3156 559 3463 722 
L 3463 178 
Q 3153 47 2828 -22 
Q 2503 -91 2169 -91 
Q 1331 -91 842 396 
Q 353 884 353 1716 
Q 353 2575 817 3079 
Q 1281 3584 2069 3584 
Q 2775 3584 3186 3129 
Q 3597 2675 3597 1894 
z
M 3022 2063 
Q 3016 2534 2758 2815 
Q 2500 3097 2075 3097 
Q 1594 3097 1305 2825 
Q 1016 2553 972 2059 
L 3022 2063 
z
" transform="scale(0.015625)"/>
     </defs>
     <use xlink:href="#DejaVuSans-54"/>
     <use xlink:href="#DejaVuSans-72" x="46.333984"/>
     <use xlink:href="#DejaVuSans-61" x="87.447266"/>
     <use xlink:href="#DejaVuSans-69" x="148.726562"/>
     <use xlink:href="#DejaVuSans-6e" x="176.509766"/>
     <use xlink:href="#DejaVuSans-69" x="239.888672"/>
     <use xlink:href="#DejaVuSans-6e" x="267.671875"/>
     <use xlink:href="#DejaVuSans-67" x="331.050781"/>
     <use xlink:href="#DejaVuSans-20" x="394.527344"/>
     <use xlink:href="#DejaVuSans-4c" x="426.314453"/>
     <use xlink:href="#DejaVuSans-6f" x="480.277344"/>
     <use xlink:href="#DejaVuSans-73" x="541.458984"/>
     <use xlink:href="#DejaVuSans-73" x="593.558594"/>
     <use xlink:href="#DejaVuSans-65" x="645.658203"/>
     <use xlink:href="#DejaVuSans-73" x="707.181641"/>
    </g>
   </g>
  </g>
 </g>
 <defs>
  <clipPath id="pbf2ab566e1">
   <rect x="46.15" y="10.8" width="403.85" height="306.92"/>
  </clipPath>
 </defs>
</svg>
